<svg xmlns="http://www.w3.org/2000/svg" xmlns:xlink="http://www.w3.org/1999/xlink" width="8" height="7.637" viewBox="0 0 8 7.637"><defs><style>.a{fill:none;}.b{clip-path:url(#a);}.c{fill:#222;}</style><clipPath id="a"><rect class="a" width="8" height="7.637"/></clipPath></defs><g class="b"><path class="c" d="M10.822,12.236,8.717,10.968,6.612,12.236a.328.328,0,0,1-.49-.353L6.677,9.49l-1.85-1.6a.33.33,0,0,1,.19-.575L7.462,7.1l.954-2.255a.325.325,0,0,1,.6,0L9.972,7.1l2.445.209a.327.327,0,0,1,.183.575l-1.85,1.6.556,2.4a.324.324,0,0,1-.484.353Z" transform="translate(-4.716 -4.648)"/></g></svg>