<svg xmlns="http://www.w3.org/2000/svg" width="135" height="25.313" viewBox="0 0 135 25.313"><defs><style>.a{fill:#fff;}</style></defs><path class="a" d="M-182.595,1951.313v-25.3h8.344a6.037,6.037,0,0,1,6.014,4.552,7.023,7.023,0,0,1,.217,2.339h-4.068v-.914a1.8,1.8,0,0,0-.875-1.653,1.679,1.679,0,0,0-.878-.261h-4.3a.339.339,0,0,0-.09.01v21.231Zm-56.961-.026q-1.8-.01-3.6,0a.233.233,0,0,1-.172-.04.215.215,0,0,1-.089-.147q-2.688-8.329-5.383-16.658-1.343-4.151-2.682-8.306c-.011-.032-.018-.064-.032-.117.078,0,.14-.009.2-.009h3.951a.248.248,0,0,1,.181.042.227.227,0,0,1,.095.153q2.846,8.776,5.7,17.553c.014.044.032.087.064.175.037-.091.063-.146.08-.2q2.82-8.756,5.639-17.516a.244.244,0,0,1,.283-.208c1.31.009,2.622,0,3.932,0h.23c-.188.584-.363,1.134-.541,1.683q-3.787,11.7-7.565,23.4a.24.24,0,0,1-.1.158.258.258,0,0,1-.143.044A.249.249,0,0,1-239.556,1951.286Zm23.617,0c-1.244,0-2.487-.007-3.73,0-.177,0-.18-.1-.212-.2q-1.628-5.037-3.256-10.072-2.394-7.383-4.78-14.771l-.068-.218c.073,0,.13-.013.186-.013h4.005a.212.212,0,0,1,.157.04.2.2,0,0,1,.081.134q2.835,8.744,5.675,17.485c.024.076.053.146.1.269.038-.1.064-.158.082-.217l5.639-17.517a.23.23,0,0,1,.093-.155.246.246,0,0,1,.18-.044h3.93l.238,0c-.166.514-.323,1-.478,1.479l-7.04,21.76c-.206.635-.415,1.267-.609,1.9a.157.157,0,0,1-.064.107.167.167,0,0,1-.1.031Zm-87.061,0V1926c.086,0,.171.009.255.009h20.355a6.177,6.177,0,0,1,5.992,4.361,5.241,5.241,0,0,1,.2,1.381q.022,9.678.009,19.357a1.413,1.413,0,0,1-.007.164h-4.422v-19.5a1.848,1.848,0,0,0-1.245-1.786,1.932,1.932,0,0,0-.624-.113c-1.658-.011-3.316,0-4.974,0a.641.641,0,0,0-.112.007v21.395h-4.082v-21.4H-298.6v21.412Zm105.046-.008a6.2,6.2,0,0,1-3.978-1.345,5.664,5.664,0,0,1-2.233-3.879,5.467,5.467,0,0,1-.036-.63c0-4.359-.014-8.719.01-13.078a6.365,6.365,0,0,1,1.471-4.181,5.737,5.737,0,0,1,3.669-2.083,7.549,7.549,0,0,1,1.057-.069c1.677,0,3.352.015,5.029,0a5.964,5.964,0,0,1,5.985,4.449,8.067,8.067,0,0,1,.27,2.129v8.884h-12.884c-.247,0-.247,0-.247.235,0,1.251.018,2.5,0,3.753a2.027,2.027,0,0,0,2.045,1.971c1-.018,2-.014,3-.011.652,0,1.3,0,1.956,0a1.974,1.974,0,0,0,1.048-.246,1.318,1.318,0,0,0,.578-.8,7.193,7.193,0,0,0,.29-1.863.607.607,0,0,1,.008-.128h4.208c0,.419.015.833,0,1.246a6.043,6.043,0,0,1-4.93,5.533,6.777,6.777,0,0,1-1.2.111q-.853.006-1.706.005C-195.678,1951.283-196.816,1951.277-197.954,1951.277Zm6.863-13.577a.217.217,0,0,0,.011-.048c0-1.987.014-3.974,0-5.961a1.89,1.89,0,0,0-1.885-1.765c-1.677-.007-3.352,0-5.029,0a1.153,1.153,0,0,0-.235.022,1.893,1.893,0,0,0-1.607,1.891v5.861Zm-8.746,0h0Zm-66.45,13.582a6.139,6.139,0,0,1-6.039-4.822,5.573,5.573,0,0,1-.1-1.022q-.008-9.588,0-19.181l0-.237h4.384v.22c0,6.412.01,12.823-.01,19.234a1.808,1.808,0,0,0,.55,1.345,1.968,1.968,0,0,0,1.391.554h6.675c.041,0,.083-.007.136-.012v-21.339h4.38v25.259Z" transform="translate(303 -1926)"/></svg>