<svg xmlns="http://www.w3.org/2000/svg" width="85.334" height="16" viewBox="0 0 85.334 16"><defs><style>.a{fill:#222;}</style></defs><path class="a" d="M-823.885,1087.506v-15.995h5.27a3.815,3.815,0,0,1,3.8,2.877,4.454,4.454,0,0,1,.137,1.479h-2.569v-.578a1.136,1.136,0,0,0-.553-1.045,1.063,1.063,0,0,0-.554-.166h-2.714a.192.192,0,0,0-.057.007v13.42Zm-36.013-.016q-1.138-.007-2.276,0a.148.148,0,0,1-.108-.026.135.135,0,0,1-.057-.093q-1.7-5.265-3.4-10.529-.848-2.624-1.694-5.25c-.007-.021-.012-.042-.021-.074.049,0,.089-.006.13-.006h2.495a.155.155,0,0,1,.114.026.143.143,0,0,1,.06.1q1.8,5.547,3.6,11.094c.009.028.021.056.041.111.023-.057.04-.092.05-.125q1.781-5.535,3.561-11.072a.154.154,0,0,1,.179-.131c.828.006,1.656,0,2.484,0h.145c-.118.37-.229.717-.342,1.065q-2.391,7.394-4.778,14.788a.149.149,0,0,1-.064.1.162.162,0,0,1-.092.028Zm14.93,0c-.786,0-1.571,0-2.357,0-.112,0-.113-.066-.133-.127q-1.03-3.185-2.057-6.367-1.511-4.667-3.019-9.337c-.014-.041-.026-.083-.043-.138.046,0,.082-.008.117-.008h2.53a.138.138,0,0,1,.1.025.128.128,0,0,1,.051.085q1.79,5.527,3.585,11.052c.015.049.034.093.061.17.023-.064.04-.1.051-.137l3.562-11.072a.145.145,0,0,1,.059-.1.158.158,0,0,1,.113-.028h2.483l.15,0c-.105.325-.2.63-.3.935l-4.447,13.755c-.13.4-.262.8-.385,1.2a.1.1,0,0,1-.04.068.1.1,0,0,1-.061.019Zm-55.032,0v-15.982c.054,0,.108.005.161.005h12.857a3.9,3.9,0,0,1,3.785,2.758,3.331,3.331,0,0,1,.124.872q.013,6.118.005,12.236a.788.788,0,0,1,0,.1h-2.793v-12.328a1.167,1.167,0,0,0-.787-1.129,1.194,1.194,0,0,0-.393-.072c-1.048-.007-2.1,0-3.143,0a.367.367,0,0,0-.07,0v13.523h-2.578v-13.524h-4.388v13.533Zm66.414,0a3.916,3.916,0,0,1-2.513-.85,3.58,3.58,0,0,1-1.41-2.453,3.453,3.453,0,0,1-.023-.4c0-2.755-.008-5.511.007-8.266a4.027,4.027,0,0,1,.929-2.642,3.625,3.625,0,0,1,2.318-1.316,4.594,4.594,0,0,1,.667-.044c1.059,0,2.118.01,3.177,0a3.767,3.767,0,0,1,3.78,2.812,5.082,5.082,0,0,1,.17,1.346v5.615h-8.138c-.156,0-.156,0-.156.149,0,.791.011,1.581,0,2.372a1.281,1.281,0,0,0,1.291,1.245c.632-.011,1.265-.009,1.9-.006.411,0,.823,0,1.234,0a1.253,1.253,0,0,0,.662-.155.839.839,0,0,0,.365-.507,4.549,4.549,0,0,0,.183-1.177.406.406,0,0,1,.005-.081h2.658c0,.266.01.526,0,.787a3.818,3.818,0,0,1-3.114,3.5,4.254,4.254,0,0,1-.756.07q-.539,0-1.078,0C-832.149,1087.487-832.867,1087.484-833.586,1087.484Zm4.334-8.582a.17.17,0,0,0,.007-.031c0-1.255.008-2.511,0-3.766a1.2,1.2,0,0,0-1.192-1.116c-1.058,0-2.118,0-3.176,0a.682.682,0,0,0-.148.014,1.2,1.2,0,0,0-1.015,1.2v3.7Zm-5.524,0h0Zm-42.018,8.585a3.879,3.879,0,0,1-3.815-3.047,3.469,3.469,0,0,1-.062-.647q-.007-6.06,0-12.124l0-.149h2.768v.14c0,4.053.007,8.105-.005,12.157a1.141,1.141,0,0,0,.347.849,1.239,1.239,0,0,0,.878.351h4.216c.025,0,.051,0,.086-.007V1071.52h2.767v15.966Z" transform="translate(900 -1071.506)"/></svg>